<?xml version="1.0" encoding="utf-8"?>
<!-- Generator: Adobe Illustrator 22.1.0, SVG Export Plug-In . SVG Version: 6.00 Build 0)  -->
<svg version="1.1" id="Calque_1" xmlns="http://www.w3.org/2000/svg" xmlns:xlink="http://www.w3.org/1999/xlink" x="0px" y="0px"
	 viewBox="0 0 595.3 508.4" style="enable-background:new 0 0 595.3 508.4;" xml:space="preserve">
<style type="text/css">
	.st0{clip-path:url(#SVGID_2_);}
	.st1{clip-path:url(#SVGID_10_);}
	.st2{fill:url(#SVGID_13_);}
	.st3{fill-rule:evenodd;clip-rule:evenodd;fill:url(#SVGID_14_);}
	.st4{fill-rule:evenodd;clip-rule:evenodd;fill:url(#SVGID_15_);}
	.st5{fill:url(#SVGID_16_);}
	.st6{fill:url(#SVGID_17_);}
	.st7{fill:url(#SVGID_18_);}
	.st8{fill:url(#SVGID_19_);}
	.st9{fill:url(#SVGID_20_);}
	.st10{fill:url(#SVGID_21_);}
	.st11{fill:url(#SVGID_22_);}
	.st12{fill:url(#SVGID_23_);}
	.st13{fill:url(#SVGID_24_);}
	.st14{fill:url(#SVGID_25_);}
	.st15{fill:url(#SVGID_26_);}
	.st16{fill:url(#SVGID_27_);}
	.st17{fill:url(#SVGID_28_);}
	.st18{fill:url(#SVGID_29_);}
	.st19{fill:url(#SVGID_30_);}
	.st20{fill:url(#SVGID_31_);}
	.st21{fill:url(#SVGID_32_);}
	.st22{fill:url(#SVGID_33_);}
	.st23{fill:url(#SVGID_34_);}
	.st24{fill:url(#SVGID_35_);}
	.st25{fill:url(#SVGID_36_);}
	.st26{fill:url(#SVGID_37_);}
	.st27{fill:url(#SVGID_38_);}
	.st28{fill:url(#SVGID_39_);}
	.st29{fill:url(#SVGID_40_);}
	.st30{fill:url(#SVGID_41_);}
	.st31{fill:url(#SVGID_42_);}
	.st32{fill:url(#SVGID_43_);}
	.st33{fill:url(#SVGID_44_);}
	.st34{fill:url(#SVGID_45_);}
	.st35{fill:url(#SVGID_46_);}
	.st36{fill:url(#SVGID_47_);}
	.st37{fill:url(#SVGID_48_);}
	.st38{fill:url(#SVGID_49_);}
	.st39{fill:url(#SVGID_50_);}
	.st40{fill:url(#SVGID_51_);}
	.st41{fill:url(#SVGID_52_);}
	.st42{fill:url(#SVGID_53_);}
	.st43{fill:url(#SVGID_54_);}
	.st44{fill:url(#SVGID_55_);}
	.st45{fill:url(#SVGID_56_);}
	.st46{fill:url(#SVGID_57_);}
	.st47{fill:#30271C;}
	.st48{clip-path:url(#SVGID_59_);}
	.st49{fill:url(#SVGID_60_);}
	.st50{fill:#ECEA00;}
	.st51{fill:url(#SVGID_61_);}
	.st52{fill:url(#SVGID_62_);}
	.st53{fill:#292117;}
	.st54{fill:#F7F000;}
	.st55{fill:url(#SVGID_63_);}
	.st56{fill:url(#SVGID_64_);}
	.st57{fill:#558618;}
	.st58{fill:url(#SVGID_65_);}
	.st59{fill:url(#SVGID_66_);}
	.st60{fill:url(#SVGID_67_);}
	.st61{fill:#F6F100;}
	.st62{fill:url(#SVGID_68_);}
	.st63{fill:#FFB500;}
	.st64{fill:#FFFBF2;}
	.st65{fill:#E7F2ED;}
	.st66{clip-path:url(#SVGID_72_);}
</style>
<g>
	<g>
		<defs>
			<rect id="SVGID_1_" y="0" width="595.2" height="508.4"/>
		</defs>
		<clipPath id="SVGID_2_">
			<use xlink:href="#SVGID_1_"  style="overflow:visible;"/>
		</clipPath>
		<g class="st0">
			<g>
				<g>
					<defs>
						<rect id="SVGID_3_" x="-8.5" y="215.1" width="611.5" height="372.9"/>
					</defs>
					<clipPath id="SVGID_4_">
						<use xlink:href="#SVGID_3_"  style="overflow:visible;"/>
					</clipPath>
				</g>
			</g>
			<g>
				<g>
					<defs>
						<rect id="SVGID_5_" x="-8.5" y="215.1" width="611.5" height="372.9"/>
					</defs>
					<clipPath id="SVGID_6_">
						<use xlink:href="#SVGID_5_"  style="overflow:visible;"/>
					</clipPath>
				</g>
			</g>
			<g>
				<g>
					<defs>
						<rect id="SVGID_7_" x="-8.5" y="215.1" width="611.5" height="372.9"/>
					</defs>
					<clipPath id="SVGID_8_">
						<use xlink:href="#SVGID_7_"  style="overflow:visible;"/>
					</clipPath>
				</g>
			</g>
		</g>
	</g>
	<g>
		<defs>
			<rect id="SVGID_9_" y="0" width="595.2" height="508.4"/>
		</defs>
		<clipPath id="SVGID_10_">
			<use xlink:href="#SVGID_9_"  style="overflow:visible;"/>
		</clipPath>
		<g class="st1">
			<g>
				<g>
					<defs>
						<rect id="SVGID_11_" x="-8.5" y="215.1" width="611.5" height="372.9"/>
					</defs>
					<clipPath id="SVGID_12_">
						<use xlink:href="#SVGID_11_"  style="overflow:visible;"/>
					</clipPath>
				</g>
			</g>
			<g>
				<g>
					
						<radialGradient id="SVGID_13_" cx="311.6159" cy="221.7601" r="680.2874" gradientTransform="matrix(1 0 0 0.505 0 261.4687)" gradientUnits="userSpaceOnUse">
						<stop  offset="5.555560e-02" style="stop-color:#FFEAAF"/>
						<stop  offset="0.3556" style="stop-color:#FFB500"/>
						<stop  offset="1" style="stop-color:#FD4802"/>
					</radialGradient>
					<rect x="-244.3" y="-23.1" class="st2" width="1111.9" height="793"/>
					<radialGradient id="SVGID_14_" cx="318.093" cy="414.4744" r="699.5996" gradientUnits="userSpaceOnUse">
						<stop  offset="0" style="stop-color:#FFEAAF"/>
						<stop  offset="0.2" style="stop-color:#FFD43D"/>
						<stop  offset="0.8364" style="stop-color:#FD4802"/>
					</radialGradient>
					<path class="st3" d="M318.1,898.2c-115.9,0-228.4-12.7-334.4-37.7c-102.5-24.2-194.7-58.8-273.9-102.9
						c-79.5-44.3-142.1-95.9-185.8-153.4c-45.7-60-68.9-123.9-68.9-189.7c0-65.8,23.2-129.7,68.9-189.7
						c43.8-57.5,106.3-109.1,185.8-153.4C-211,27.2-118.9-7.4-16.3-31.6c106-25,218.6-37.7,334.4-37.7
						c115.9,0,228.4,12.7,334.4,37.7C755-7.4,847.2,27.2,926.4,71.3c79.5,44.3,142.1,95.9,185.8,153.4
						c45.7,60,68.9,123.9,68.9,189.7c0,65.8-23.2,129.7-68.9,189.7c-43.8,57.5-106.3,109.1-185.8,153.4
						c-79.2,44.1-171.4,78.8-273.9,102.9C546.5,885.6,434,898.2,318.1,898.2L318.1,898.2z M324.1,465.1l35.5,401.8
						c20.2-0.5,38.8-1.4,56.4-2.5l-90-397.8l13.8-4.4l160.9,394.2c20.5-2.6,38-5.1,54.1-7.7L342.4,466.2l12.2-7.9l3.9,5.2l9.8-10.2
						l5.3,4.6l7-10.5l5.7,3.5l4.8-10.3l5.3,2.2l3.2-10l4.2,1.2l2-9.6l2.6,0.4l0.9-9.3l0.8,0.1v-3.7l-0.8,0.1l-0.9-9.3l-2.6,0.4
						l-1.9-9.6l-4.2,1.2l-3.2-10l-5.3,2.2l-4.8-10.3l-5.7,3.5l-7-10.5l-5.3,4.6l-9.8-10.2l-3.9,5.2l-12.2-7.9L554.1-19.9
						c-15.9-2.6-33.5-5.1-54-7.7L339.8,365.2l-13.8-4.4l89.6-396.2c-17.6-1.2-36.1-2-56.3-2.5l-35.3,400.3l-14.5,0L274.1-37.8
						c-21,0.6-39.2,1.4-56.2,2.6l89.7,396.1l-13.8,4.4L133.5-27.3C116-25,98.3-22.4,79.8-19.2l211.4,380.4l-12.2,7.9l-3.9-5.2
						l-9.8,10.2l-5.4-4.7l-7.1,10.6l-5.8-3.5l-4.8,10.3l-5.3-2.2l-3.2,10l-4.2-1.2l-1.9,9.6l-2.6-0.4l-0.9,9.3l-0.6,0l0,3.7l0.6,0
						l0.9,9.3l2.6-0.4l2,9.6l4.2-1.2l3.2,10l5.3-2.2l4.8,10.3l5.8-3.5l7.1,10.6l5.4-4.7l9.8,10.2l3.9-5.2l12.2,7.9l-212.3,382
						c16.3,2.7,33.8,5.3,54,7.8l160.9-393.8l13.8,4.4l-90.1,397.6c17.6,1.2,36.2,2.1,56.4,2.7l35.7-401.7L324.1,465.1z M637,832.1
						c15.5-3.7,31.8-7.9,49.3-12.8L360.8,466.5L637,832.1z M-52.2,818.8c17.4,5,33.6,9.2,49,12.9l275.9-365.1L-52.2,818.8z
						 M763.5,794.5c14.2-5.1,28.4-10.6,43-16.7L391.8,473.6L763.5,794.5z M-172.1,777.2c14.4,6,28.8,11.6,42.9,16.7l371.9-321.2
						L-172.1,777.2z M876.6,745.4c12.5-6.4,24.5-13.1,35.9-19.7l-484.7-250L876.6,745.4z M-277.6,725c11.6,6.8,23.6,13.4,35.8,19.8
						l447.6-269.1L-277.6,725z M972.9,686.2c10-7.3,19.5-14.7,28.4-22.1L465,471.6L972.9,686.2z M-365.9,663.5
						c8.8,7.3,18.2,14.7,28.2,22l506.1-213.9L-365.9,663.5z M1049.6,618.6c7.6-8.1,14.4-16,20.6-23.8L497.6,460.8L1049.6,618.6z
						 M-434.4,594.3c6,7.6,12.8,15.4,20.4,23.7l549.7-157.2L-434.4,594.3z M1103.8,544.5c4.2-7.7,8.1-16,11.9-25l-592-74.9
						L1103.8,544.5z M-479.6,519.2c4,9.4,7.7,17.5,11.7,24.9l577.6-99.5L-479.6,519.2z M1132.3,466.3c1.7-8.2,2.9-16.8,3.8-25.4
						l-599.3-16.4L1132.3,466.3z M-499.9,440.8c0.9,9,2.1,17.3,3.8,25.3l592.6-41.6L-499.9,440.8z M535.8,403l600.1-16.5
						c-1-9-2.3-17.4-4-25.4L535.8,403z M97.5,403l-593.4-41.7c-1.7,8.2-3.1,16.7-4.1,25.3L97.5,403z M109.6,382.7l-575.8-99.2
						c-4.4,8-8.5,16.1-12.3,24.7L109.6,382.7z M523.9,382.7l591-74.8c-3.9-9.2-7.8-17.3-12-24.9L523.9,382.7z M498.5,366.4
						l570.7-133.7c-6-7.5-12.9-15.3-20.7-23.7L498.5,366.4z M135,366.4l-547.4-156.6c-7.1,7.6-13.8,15.4-20.3,23.7L135,366.4z
						 M360.9,360.8L685.1,9.4C667.6,4.5,651.4,0.3,636-3.4L360.9,360.8z M272.7,360.8L-1.7-2.4c-15.9,3.8-32,8-48.8,12.8
						L272.7,360.8z M169.3,356.1l-505.7-213.7c-9.4,6.9-18.7,14.2-28.1,22L169.3,356.1z M464.2,356.1L1000,163.7
						c-8.9-7.3-18.3-14.6-28.4-22L464.2,356.1z M242.8,354.7L-127.3,35c-15.3,5.5-29.5,11-42.9,16.5L242.8,354.7z M391.8,353.8
						L805.1,50.5c-14.2-5.9-28.6-11.4-43-16.5L391.8,353.8z M205.8,351.8L-240,83.7c-10.7,5.5-23.4,12.2-36.1,19.5L205.8,351.8z
						 M427.8,351.7l483.3-249.3c-11.5-6.7-23.6-13.3-35.9-19.6L427.8,351.7z"/>
					
						<radialGradient id="SVGID_15_" cx="318.093" cy="249.6189" r="714.1455" gradientTransform="matrix(1 0 0 0.8884 0 192.7127)" gradientUnits="userSpaceOnUse">
						<stop  offset="5.555560e-02" style="stop-color:#FFEAAF"/>
						<stop  offset="0.3556" style="stop-color:#FFB500"/>
						<stop  offset="1" style="stop-color:#FD4802"/>
					</radialGradient>
					<path class="st4" d="M318.1-62c-471.8,0-855.8,213.7-855.8,476.5c0,262.7,384,476.5,855.8,476.5
						c471.8,0,855.8-213.7,855.8-476.5C1173.9,151.7,789.9-62,318.1-62z M876.3,753.8L376.9,453.6l444.2,326
						c-19.2,8.2-38.8,16-59.2,23.2L363.6,458.8L699.7,823c-21.5,6.2-43.2,12-65.7,17.2L348.8,462.6l217.4,391.5
						c-22.8,4-46.3,7.3-70,10.2L333.1,465L425,871c-23.7,1.7-47.8,2.8-72.1,3.3l-36.1-408.6l-36.3,408.5c-24.3-0.6-48.3-1.7-72-3.5
						l92-405.8l-163,399c-23.7-2.9-47.1-6.3-70-10.3l217.3-391l-285,377.2c-22.4-5.2-44-11.1-65.3-17.3L270,458.8l-397.6,343.4
						c-20.4-7.3-40-15.1-59.1-23.3l443.2-325.3l-498,299.5c-17.8-9.1-34.8-18.6-51.1-28.6L245,447.2l-583.7,246.6
						c-14.6-10.6-28.5-21.6-41.5-32.9l615.8-221.1l-651.9,186.4c-11.1-11.9-21.6-24-30.8-36.4l675.8-158.2l-700.5,120.7
						c-7.2-12.7-13-25.8-18.2-39l714.5-90.4l-726.4,51c-3.1-13.2-4.9-26.5-5.9-40.1l731.1-20L-508,393.6c1.2-13.5,3.3-26.8,6.4-40
						l726.2,51L-489,314.3c5.4-13.1,11.6-26.1,18.9-38.8l698.9,120.3L-445.3,238c9.3-12.4,19.5-24.5,30.7-36.4l650.4,186.1
						l-614.4-220.6c13-11.3,26.7-22.3,41.4-33L245,380.2l-536.2-276.6c16.3-9.9,33.7-19.2,51.4-28.3l496.3,298.4L-184.9,49.8
						c19.1-8.2,38.8-15.8,59.1-23.1L270,368.6L-63.9,6.7C-42.7,0.4-21-5.4,1.3-10.5l283.6,375.3L68.5-24.6
						c22.7-4.1,45.9-7.7,69.6-10.6l162.5,397.6L208.9-41.9c23.6-1.8,47.6-2.7,71.8-3.4l36.1,406.9l35.9-407.1
						c24.3,0.6,48.2,1.6,71.9,3.3l-91.5,404.5L495.5-35.5c23.7,2.9,47.1,6.1,70,10.1L348.8,364.7L633-11.5
						c22.4,5.1,44.1,11,65.5,17.1l-334.9,363l397-342.9c20.4,7.2,40.1,14.9,59.2,23.1l-442.9,325L874.8,74.5
						c17.8,9.1,34.9,18.5,51.2,28.4L388.4,380.2l584.2-246.8c14.7,10.6,28.7,21.5,41.8,32.9L397.7,387.7l653-186.8
						c11.2,11.9,21.8,24,31.1,36.4L404.7,395.9L1106.7,275c7.3,12.7,13.2,25.8,18.5,39l-716.4,90.7l728.7-51.2
						c3.2,13.2,5.1,26.6,6.2,40.2l-733.5,20.1l733.7,20.1c-1,13.6-2.9,26.9-5.9,40.2l-729.2-51.2l717.1,90.8
						c-5.2,13.2-11.1,26.3-18.4,39.1l-703-121.1l678.1,158.8c-9.3,12.5-19.7,24.6-31,36.5L397.7,439.7l617.9,221.8
						c-13.1,11.3-27,22.3-41.7,33L388.4,447.2l539,278.1C911.2,735.2,894.1,744.6,876.3,753.8z"/>
				</g>
				<radialGradient id="SVGID_16_" cx="306.1414" cy="418.4995" r="99.2033" gradientUnits="userSpaceOnUse">
					<stop  offset="0.8424" style="stop-color:#FFFBF2"/>
					<stop  offset="0.9444" style="stop-color:#FFEDD0"/>
				</radialGradient>
				<ellipse class="st5" cx="306.1" cy="418.5" rx="100.1" ry="98.3"/>
				<g>
					
						<linearGradient id="SVGID_17_" gradientUnits="userSpaceOnUse" x1="-87.3571" y1="369.8815" x2="-75.9506" y2="350.1249" gradientTransform="matrix(-1 0 0 1 178 0)">
						<stop  offset="0" style="stop-color:#DBF7ED"/>
						<stop  offset="1" style="stop-color:#FFFBF2"/>
					</linearGradient>
					<path class="st6" d="M247,360c0,6.1,5.7,11,12.6,11c7,0,12.6-4.9,12.6-11c0-6.1-5.7-11-12.6-11C252.7,349,247,353.9,247,360z"
						/>
					
						<linearGradient id="SVGID_18_" gradientUnits="userSpaceOnUse" x1="-66.2762" y1="375.0987" x2="-48.711" y2="344.6749" gradientTransform="matrix(-1 0 0 1 178 0)">
						<stop  offset="0" style="stop-color:#DBF7ED"/>
						<stop  offset="1" style="stop-color:#FFFBF2"/>
					</linearGradient>
					<path class="st7" d="M216.1,359.9c0,9.3,8.7,16.9,19.4,16.9c10.7,0,19.4-7.6,19.4-16.9s-8.7-16.9-19.4-16.9
						C224.8,343,216.1,350.6,216.1,359.9z"/>
					
						<linearGradient id="SVGID_19_" gradientUnits="userSpaceOnUse" x1="-547.8443" y1="369.8814" x2="-536.4379" y2="350.1249" gradientTransform="matrix(1 0 0 1 1040.3594 0)">
						<stop  offset="0" style="stop-color:#DBF7ED"/>
						<stop  offset="1" style="stop-color:#FFFBF2"/>
					</linearGradient>
					<path class="st8" d="M510.8,360c0,6.1-5.7,11-12.6,11c-7,0-12.6-4.9-12.6-11c0-6.1,5.6-11,12.6-11
						C505.2,349,510.8,353.9,510.8,360z"/>
					
						<linearGradient id="SVGID_20_" gradientUnits="userSpaceOnUse" x1="-526.7635" y1="375.0986" x2="-509.1982" y2="344.6746" gradientTransform="matrix(1 0 0 1 1040.3594 0)">
						<stop  offset="0" style="stop-color:#DBF7ED"/>
						<stop  offset="1" style="stop-color:#FFFBF2"/>
					</linearGradient>
					<path class="st9" d="M541.8,359.9c0,9.3-8.7,16.9-19.4,16.9c-10.7,0-19.4-7.6-19.4-16.9s8.7-16.9,19.4-16.9
						C533.1,343,541.8,350.6,541.8,359.9z"/>
					
						<linearGradient id="SVGID_21_" gradientUnits="userSpaceOnUse" x1="-565.3745" y1="370.535" x2="-549.1777" y2="342.4814" gradientTransform="matrix(1 0 0 1 1040.3594 0)">
						<stop  offset="0" style="stop-color:#DBF7ED"/>
						<stop  offset="1" style="stop-color:#FFFBF2"/>
					</linearGradient>
					<path class="st10" d="M501,356.5c0,8.6-8,15.6-17.9,15.6c-9.9,0-17.9-7-17.9-15.6c0-8.6,8-15.6,17.9-15.6
						C493,340.9,501,347.9,501,356.5z"/>
					
						<linearGradient id="SVGID_22_" gradientUnits="userSpaceOnUse" x1="636.4824" y1="355.5821" x2="651.191" y2="330.1059" gradientTransform="matrix(-1 0 0 1 1218.3594 0)">
						<stop  offset="0" style="stop-color:#DBF7ED"/>
						<stop  offset="1" style="stop-color:#FFFBF2"/>
					</linearGradient>
					<path class="st11" d="M558.2,342.8c0,7.8,7.3,14.1,16.3,14.1c9,0,16.3-6.3,16.3-14.1c0-7.8-7.3-14.1-16.3-14.1
						C565.5,328.7,558.2,335,558.2,342.8z"/>
					
						<linearGradient id="SVGID_23_" gradientUnits="userSpaceOnUse" x1="664.9301" y1="376.3429" x2="687.5814" y2="337.1096" gradientTransform="matrix(-1 0 0 1 1218.3594 0)">
						<stop  offset="0" style="stop-color:#DBF7ED"/>
						<stop  offset="1" style="stop-color:#FFFBF2"/>
					</linearGradient>
					<path class="st12" d="M517,356.7c0,12,11.2,21.8,25.1,21.8c13.8,0,25.1-9.8,25.1-21.8c0-12-11.2-21.8-25.1-21.8
						C528.3,334.9,517,344.7,517,356.7z"/>
					
						<linearGradient id="SVGID_24_" gradientUnits="userSpaceOnUse" x1="56.396" y1="369.8816" x2="67.8026" y2="350.1248" gradientTransform="matrix(-1 0 0 1 178 0)">
						<stop  offset="0" style="stop-color:#DBF7ED"/>
						<stop  offset="1" style="stop-color:#FFFBF2"/>
					</linearGradient>
					<path class="st13" d="M103.3,360c0,6.1,5.7,11,12.6,11s12.6-4.9,12.6-11c0-6.1-5.7-11-12.6-11S103.3,353.9,103.3,360z"/>
					
						<linearGradient id="SVGID_25_" gradientUnits="userSpaceOnUse" x1="-251.3842" y1="377.1065" x2="-237.1651" y2="352.4783" gradientTransform="matrix(-1 0 0 1 178 0)">
						<stop  offset="0" style="stop-color:#DBF7ED"/>
						<stop  offset="1" style="stop-color:#FFFBF2"/>
					</linearGradient>
					<path class="st14" d="M404.8,364.8c0,7.2,7.8,13,17.4,13c9.6,0,17.4-5.8,17.4-13c0-7.2-7.8-13-17.4-13
						C412.7,351.8,404.8,357.6,404.8,364.8z"/>
					
						<linearGradient id="SVGID_26_" gradientUnits="userSpaceOnUse" x1="-219.417" y1="381.4118" x2="-197.5198" y2="343.4848" gradientTransform="matrix(-1 0 0 1 178 0)">
						<stop  offset="0" style="stop-color:#DBF7ED"/>
						<stop  offset="1" style="stop-color:#FFFBF2"/>
					</linearGradient>
					<path class="st15" d="M359.6,362.4c0,11,12,20,26.8,20c14.8,0,26.8-8.9,26.8-20c0-11-12-20-26.8-20
						C371.6,342.5,359.6,351.4,359.6,362.4z"/>
					
						<linearGradient id="SVGID_27_" gradientUnits="userSpaceOnUse" x1="-283.382" y1="384.217" x2="-263.1906" y2="349.2443" gradientTransform="matrix(-1 0 0 1 178 0)">
						<stop  offset="0" style="stop-color:#DBF7ED"/>
						<stop  offset="1" style="stop-color:#FFFBF2"/>
					</linearGradient>
					<path class="st16" d="M426.5,366.7c0,10.2,11.1,18.4,24.7,18.4c13.7,0,24.7-8.2,24.7-18.4c0-10.2-11.1-18.4-24.7-18.4
						C437.6,348.3,426.5,356.6,426.5,366.7z"/>
					<linearGradient id="SVGID_28_" gradientUnits="userSpaceOnUse" x1="590.7165" y1="352.5429" x2="607.6926" y2="323.1394">
						<stop  offset="0" style="stop-color:#DBF7ED"/>
						<stop  offset="1" style="stop-color:#FFFBF2"/>
					</linearGradient>
					<path class="st17" d="M602.7,356.9c0,0-15.2,1-15.2-17.5c0-18.5,15.2-19.2,15.2-19.2V356.9z"/>
					<linearGradient id="SVGID_29_" gradientUnits="userSpaceOnUse" x1="202.0756" y1="369.4994" x2="220.412" y2="337.7397">
						<stop  offset="0" style="stop-color:#DBF7ED"/>
						<stop  offset="1" style="stop-color:#FFFBF2"/>
					</linearGradient>
					<path class="st18" d="M233.7,353.6c0,9.2-10.1,16.7-22.5,16.7c-12.4,0-22.5-7.5-22.5-16.7c0-9.2,10.1-16.7,22.5-16.7
						C223.7,336.9,233.7,344.4,233.7,353.6z"/>
					<linearGradient id="SVGID_30_" gradientUnits="userSpaceOnUse" x1="167.2116" y1="375.8345" x2="193.2495" y2="330.7355">
						<stop  offset="0" style="stop-color:#DBF7ED"/>
						<stop  offset="1" style="stop-color:#FFFBF2"/>
					</linearGradient>
					<path class="st19" d="M212.1,353.3c0,13.1-14.3,23.8-31.9,23.8c-17.6,0-31.9-10.6-31.9-23.8c0-13.1,14.3-23.8,31.9-23.8
						C197.9,329.5,212.1,340.2,212.1,353.3z"/>
					
						<linearGradient id="SVGID_31_" gradientUnits="userSpaceOnUse" x1="77.477" y1="375.0986" x2="95.0422" y2="344.6748" gradientTransform="matrix(-1 0 0 1 178 0)">
						<stop  offset="0" style="stop-color:#DBF7ED"/>
						<stop  offset="1" style="stop-color:#FFFBF2"/>
					</linearGradient>
					<path class="st20" d="M72.3,359.9c0,9.3,8.7,16.9,19.4,16.9c10.7,0,19.4-7.6,19.4-16.9S102.5,343,91.7,343
						C81,343,72.3,350.6,72.3,359.9z"/>
					
						<linearGradient id="SVGID_32_" gradientUnits="userSpaceOnUse" x1="33.7318" y1="375.6685" x2="49.9282" y2="347.6154" gradientTransform="matrix(-1 0 0 1 178 0)">
						<stop  offset="0" style="stop-color:#DBF7ED"/>
						<stop  offset="1" style="stop-color:#FFFBF2"/>
					</linearGradient>
					<path class="st21" d="M118.2,361.6c0,8.6,8,15.6,17.9,15.6c9.9,0,17.9-7,17.9-15.6c0-8.6-8-15.6-17.9-15.6
						C126.3,346.1,118.2,353,118.2,361.6z"/>
					<linearGradient id="SVGID_33_" gradientUnits="userSpaceOnUse" x1="31.8827" y1="352.5013" x2="46.5913" y2="327.0253">
						<stop  offset="0" style="stop-color:#DBF7ED"/>
						<stop  offset="1" style="stop-color:#FFFBF2"/>
					</linearGradient>
					<path class="st22" d="M55.5,339.8c0,7.8-7.3,14.1-16.3,14.1c-9,0-16.3-6.3-16.3-14.1s7.3-14.1,16.3-14.1
						C48.2,325.6,55.5,332,55.5,339.8z"/>
					<linearGradient id="SVGID_34_" gradientUnits="userSpaceOnUse" x1="60.6891" y1="372.2359" x2="83.3406" y2="333.0023">
						<stop  offset="0" style="stop-color:#DBF7ED"/>
						<stop  offset="1" style="stop-color:#FFFBF2"/>
					</linearGradient>
					<path class="st23" d="M97.1,352.6c0,12-11.2,21.8-25.1,21.8c-13.8,0-25.1-9.8-25.1-21.8c0-12,11.2-21.8,25.1-21.8
						C85.9,330.8,97.1,340.6,97.1,352.6z"/>
					<linearGradient id="SVGID_35_" gradientUnits="userSpaceOnUse" x1="6.3321" y1="357.5687" x2="27.2188" y2="321.3919">
						<stop  offset="0" style="stop-color:#DBF7ED"/>
						<stop  offset="1" style="stop-color:#FFFBF2"/>
					</linearGradient>
					<path class="st24" d="M39.9,339.5c0,11.1-10.3,20.1-23.1,20.1c-12.8,0-23.1-9-23.1-20.1c0-11.1,10.3-20.1,23.1-20.1
						C29.5,319.4,39.9,328.4,39.9,339.5z"/>
				</g>
				<g>
					
						<linearGradient id="SVGID_36_" gradientUnits="userSpaceOnUse" x1="-87.3571" y1="369.8815" x2="-75.9506" y2="350.1249" gradientTransform="matrix(-1 0 0 1 178 0)">
						<stop  offset="0" style="stop-color:#DBF7ED"/>
						<stop  offset="1" style="stop-color:#FFFBF2"/>
					</linearGradient>
					<path class="st25" d="M247,360c0,6.1,5.7,11,12.6,11c7,0,12.6-4.9,12.6-11c0-6.1-5.7-11-12.6-11C252.7,349,247,353.9,247,360z"
						/>
					
						<linearGradient id="SVGID_37_" gradientUnits="userSpaceOnUse" x1="-66.2762" y1="375.0987" x2="-48.711" y2="344.6749" gradientTransform="matrix(-1 0 0 1 178 0)">
						<stop  offset="0" style="stop-color:#DBF7ED"/>
						<stop  offset="1" style="stop-color:#FFFBF2"/>
					</linearGradient>
					<path class="st26" d="M216.1,359.9c0,9.3,8.7,16.9,19.4,16.9c10.7,0,19.4-7.6,19.4-16.9s-8.7-16.9-19.4-16.9
						C224.8,343,216.1,350.6,216.1,359.9z"/>
					
						<linearGradient id="SVGID_38_" gradientUnits="userSpaceOnUse" x1="-547.8443" y1="369.8814" x2="-536.4379" y2="350.1249" gradientTransform="matrix(1 0 0 1 1040.3594 0)">
						<stop  offset="0" style="stop-color:#DBF7ED"/>
						<stop  offset="1" style="stop-color:#FFFBF2"/>
					</linearGradient>
					<path class="st27" d="M510.8,360c0,6.1-5.7,11-12.6,11c-7,0-12.6-4.9-12.6-11c0-6.1,5.6-11,12.6-11
						C505.2,349,510.8,353.9,510.8,360z"/>
					
						<linearGradient id="SVGID_39_" gradientUnits="userSpaceOnUse" x1="-526.7634" y1="368.9377" x2="-509.198" y2="338.5135" gradientTransform="matrix(1 0 0 1 1040.3594 0)">
						<stop  offset="0" style="stop-color:#DBF7ED"/>
						<stop  offset="1" style="stop-color:#FFFBF2"/>
					</linearGradient>
					<path class="st28" d="M541.8,353.7c0,9.3-8.7,16.9-19.4,16.9c-10.7,0-19.4-7.6-19.4-16.9c0-9.3,8.7-16.9,19.4-16.9
						C533.1,336.8,541.8,344.4,541.8,353.7z"/>
					
						<linearGradient id="SVGID_40_" gradientUnits="userSpaceOnUse" x1="-452.6866" y1="410.692" x2="-430.8739" y2="372.9113" gradientTransform="matrix(0.7732 -0.6341 0.6341 0.7732 692.6576 -263.9096)">
						<stop  offset="0" style="stop-color:#DBF7ED"/>
						<stop  offset="1" style="stop-color:#FFFBF2"/>
					</linearGradient>
					<path class="st29" d="M618.2,303.9c7.3,9,4.9,23.1-5.4,31.5c-10.3,8.5-24.6,8-32-0.9c-7.3-9-4.9-23.1,5.4-31.5
						C596.5,294.5,610.8,294.9,618.2,303.9z"/>
					
						<linearGradient id="SVGID_41_" gradientUnits="userSpaceOnUse" x1="-530.0422" y1="375.7047" x2="-508.2295" y2="337.924" gradientTransform="matrix(0.7732 -0.6341 0.6341 0.7732 692.6576 -263.9096)">
						<stop  offset="0" style="stop-color:#DBF7ED"/>
						<stop  offset="1" style="stop-color:#FFFBF2"/>
					</linearGradient>
					<path class="st30" d="M536.2,325.9c7.3,9,4.9,23.1-5.4,31.5c-10.3,8.5-24.6,8-32-0.9c-7.3-9-4.9-23.1,5.4-31.5
						C514.5,316.5,528.8,316.9,536.2,325.9z"/>
					
						<linearGradient id="SVGID_42_" gradientUnits="userSpaceOnUse" x1="-557.16" y1="373.6152" x2="-540.9632" y2="345.5615" gradientTransform="matrix(1 0 0 1 1040.3594 0)">
						<stop  offset="0" style="stop-color:#DBF7ED"/>
						<stop  offset="1" style="stop-color:#FFFBF2"/>
					</linearGradient>
					<path class="st31" d="M509.2,359.6c0,8.6-8,15.6-17.9,15.6c-9.9,0-17.9-7-17.9-15.6c0-8.6,8-15.6,17.9-15.6
						C501.2,344,509.2,351,509.2,359.6z"/>
					
						<linearGradient id="SVGID_43_" gradientUnits="userSpaceOnUse" x1="636.4824" y1="349.4209" x2="651.191" y2="323.9447" gradientTransform="matrix(-1 0 0 1 1218.3594 0)">
						<stop  offset="0" style="stop-color:#DBF7ED"/>
						<stop  offset="1" style="stop-color:#FFFBF2"/>
					</linearGradient>
					<path class="st32" d="M558.2,336.7c0,7.8,7.3,14.1,16.3,14.1c9,0,16.3-6.3,16.3-14.1c0-7.8-7.3-14.1-16.3-14.1
						C565.5,322.5,558.2,328.9,558.2,336.7z"/>
					
						<linearGradient id="SVGID_44_" gradientUnits="userSpaceOnUse" x1="664.9299" y1="370.1823" x2="687.5814" y2="330.9487" gradientTransform="matrix(-1 0 0 1 1218.3594 0)">
						<stop  offset="0" style="stop-color:#DBF7ED"/>
						<stop  offset="1" style="stop-color:#FFFBF2"/>
					</linearGradient>
					<path class="st33" d="M517,350.6c0,12,11.2,21.8,25.1,21.8c13.8,0,25.1-9.8,25.1-21.8c0-12-11.2-21.8-25.1-21.8
						C528.3,328.8,517,338.5,517,350.6z"/>
					
						<linearGradient id="SVGID_45_" gradientUnits="userSpaceOnUse" x1="56.396" y1="369.8816" x2="67.8026" y2="350.1248" gradientTransform="matrix(-1 0 0 1 178 0)">
						<stop  offset="0" style="stop-color:#DBF7ED"/>
						<stop  offset="1" style="stop-color:#FFFBF2"/>
					</linearGradient>
					<path class="st34" d="M103.3,360c0,6.1,5.7,11,12.6,11s12.6-4.9,12.6-11c0-6.1-5.7-11-12.6-11S103.3,353.9,103.3,360z"/>
					
						<linearGradient id="SVGID_46_" gradientUnits="userSpaceOnUse" x1="-138.4358" y1="379.1601" x2="-124.2167" y2="354.5319" gradientTransform="matrix(-1 0 0 1 178 0)">
						<stop  offset="0" style="stop-color:#DBF7ED"/>
						<stop  offset="1" style="stop-color:#FFFBF2"/>
					</linearGradient>
					<path class="st35" d="M291.9,366.8c0,7.2,7.8,13,17.4,13c9.6,0,17.4-5.8,17.4-13c0-7.2-7.8-13-17.4-13
						C299.7,353.9,291.9,359.7,291.9,366.8z"/>
					
						<linearGradient id="SVGID_47_" gradientUnits="userSpaceOnUse" x1="-106.4679" y1="383.4657" x2="-84.5706" y2="345.5385" gradientTransform="matrix(-1 0 0 1 178 0)">
						<stop  offset="0" style="stop-color:#DBF7ED"/>
						<stop  offset="1" style="stop-color:#FFFBF2"/>
					</linearGradient>
					<path class="st36" d="M246.7,364.5c0,11,12,20,26.8,20c14.8,0,26.8-8.9,26.8-20c0-11-12-20-26.8-20
						C258.7,344.5,246.7,353.5,246.7,364.5z"/>
					
						<linearGradient id="SVGID_48_" gradientUnits="userSpaceOnUse" x1="-170.4333" y1="386.2707" x2="-150.2418" y2="351.2979" gradientTransform="matrix(-1 0 0 1 178 0)">
						<stop  offset="0" style="stop-color:#DBF7ED"/>
						<stop  offset="1" style="stop-color:#FFFBF2"/>
					</linearGradient>
					<path class="st37" d="M313.6,368.8c0,10.2,11.1,18.4,24.7,18.4c13.7,0,24.7-8.2,24.7-18.4c0-10.2-11.1-18.4-24.7-18.4
						C324.7,350.4,313.6,358.6,313.6,368.8z"/>
					<linearGradient id="SVGID_49_" gradientUnits="userSpaceOnUse" x1="590.7163" y1="346.382" x2="607.6926" y2="316.9782">
						<stop  offset="0" style="stop-color:#DBF7ED"/>
						<stop  offset="1" style="stop-color:#FFFBF2"/>
					</linearGradient>
					<path class="st38" d="M602.7,350.7c0,0-15.2,1-15.2-17.5c0-18.5,15.2-19.2,15.2-19.2V350.7z"/>
					<linearGradient id="SVGID_50_" gradientUnits="userSpaceOnUse" x1="202.0756" y1="369.4994" x2="220.412" y2="337.7397">
						<stop  offset="0" style="stop-color:#DBF7ED"/>
						<stop  offset="1" style="stop-color:#FFFBF2"/>
					</linearGradient>
					<path class="st39" d="M233.7,353.6c0,9.2-10.1,16.7-22.5,16.7c-12.4,0-22.5-7.5-22.5-16.7c0-9.2,10.1-16.7,22.5-16.7
						C223.7,336.9,233.7,344.4,233.7,353.6z"/>
					<linearGradient id="SVGID_51_" gradientUnits="userSpaceOnUse" x1="167.2116" y1="375.8345" x2="193.2495" y2="330.7355">
						<stop  offset="0" style="stop-color:#DBF7ED"/>
						<stop  offset="1" style="stop-color:#FFFBF2"/>
					</linearGradient>
					<path class="st40" d="M212.1,353.3c0,13.1-14.3,23.8-31.9,23.8c-17.6,0-31.9-10.6-31.9-23.8c0-13.1,14.3-23.8,31.9-23.8
						C197.9,329.5,212.1,340.2,212.1,353.3z"/>
					
						<linearGradient id="SVGID_52_" gradientUnits="userSpaceOnUse" x1="74.4327" y1="374.7983" x2="95.1377" y2="338.9361" gradientTransform="matrix(-1 0 0 1 178 0)">
						<stop  offset="0" style="stop-color:#DBF7ED"/>
						<stop  offset="1" style="stop-color:#FFFBF2"/>
					</linearGradient>
					<path class="st41" d="M70.3,356.9c0,11,10.3,19.9,22.9,19.9c12.7,0,22.9-8.9,22.9-19.9S105.9,337,93.2,337
						C80.6,337,70.3,345.9,70.3,356.9z"/>
					
						<linearGradient id="SVGID_53_" gradientUnits="userSpaceOnUse" x1="33.7318" y1="375.6685" x2="49.9282" y2="347.6154" gradientTransform="matrix(-1 0 0 1 178 0)">
						<stop  offset="0" style="stop-color:#DBF7ED"/>
						<stop  offset="1" style="stop-color:#FFFBF2"/>
					</linearGradient>
					<path class="st42" d="M118.2,361.6c0,8.6,8,15.6,17.9,15.6c9.9,0,17.9-7,17.9-15.6c0-8.6-8-15.6-17.9-15.6
						C126.3,346.1,118.2,353,118.2,361.6z"/>
					<linearGradient id="SVGID_54_" gradientUnits="userSpaceOnUse" x1="31.8827" y1="352.5013" x2="46.5913" y2="327.0253">
						<stop  offset="0" style="stop-color:#DBF7ED"/>
						<stop  offset="1" style="stop-color:#FFFBF2"/>
					</linearGradient>
					<path class="st43" d="M55.5,339.8c0,7.8-7.3,14.1-16.3,14.1c-9,0-16.3-6.3-16.3-14.1s7.3-14.1,16.3-14.1
						C48.2,325.6,55.5,332,55.5,339.8z"/>
					<linearGradient id="SVGID_55_" gradientUnits="userSpaceOnUse" x1="-12.3109" y1="338.2358" x2="10.3406" y2="299.0023">
						<stop  offset="0" style="stop-color:#DBF7ED"/>
						<stop  offset="1" style="stop-color:#FFFBF2"/>
					</linearGradient>
					<path class="st44" d="M24.1,318.6c0,12-11.2,21.8-25.1,21.8c-13.8,0-25.1-9.8-25.1-21.8c0-12,11.2-21.8,25.1-21.8
						C12.9,296.8,24.1,306.6,24.1,318.6z"/>
					<linearGradient id="SVGID_56_" gradientUnits="userSpaceOnUse" x1="60.6891" y1="372.2359" x2="83.3406" y2="333.0023">
						<stop  offset="0" style="stop-color:#DBF7ED"/>
						<stop  offset="1" style="stop-color:#FFFBF2"/>
					</linearGradient>
					<path class="st45" d="M97.1,352.6c0,12-11.2,21.8-25.1,21.8c-13.8,0-25.1-9.8-25.1-21.8c0-12,11.2-21.8,25.1-21.8
						C85.9,330.8,97.1,340.6,97.1,352.6z"/>
					<linearGradient id="SVGID_57_" gradientUnits="userSpaceOnUse" x1="6.3321" y1="357.5687" x2="27.2188" y2="321.3919">
						<stop  offset="0" style="stop-color:#DBF7ED"/>
						<stop  offset="1" style="stop-color:#FFFBF2"/>
					</linearGradient>
					<path class="st46" d="M39.9,339.5c0,11.1-10.3,20.1-23.1,20.1c-12.8,0-23.1-9-23.1-20.1c0-11.1,10.3-20.1,23.1-20.1
						C29.5,319.4,39.9,328.4,39.9,339.5z"/>
				</g>
				<path class="st47" d="M333.7,485.6c0,0,115.5,16.7,82.1,57.5c0,0,5.4-11.3-8,2.1C407.9,545.2,456.7,508.5,333.7,485.6z"/>
				<g>
					<defs>
						<rect id="SVGID_58_" x="-8.5" y="215.1" width="611.5" height="372.9"/>
					</defs>
					<clipPath id="SVGID_59_">
						<use xlink:href="#SVGID_58_"  style="overflow:visible;"/>
					</clipPath>
					<g class="st48">
						
							<linearGradient id="SVGID_60_" gradientUnits="userSpaceOnUse" x1="-6.1044" y1="409.3628" x2="298.7676" y2="409.3628" gradientTransform="matrix(-1 0 0 1 595.1602 0)">
							<stop  offset="0" style="stop-color:#619306"/>
							<stop  offset="1" style="stop-color:#ECEA00"/>
						</linearGradient>
						<path class="st49" d="M296.4,383c0,0,52.8-40,119-14.9c0,0,42.8-27.3,122.3-4.8c1.1,0.3,2.2,0.6,3.4,1l60.2,25.8v74.1
							l-293.5-18.1L296.4,383z"/>
						<path class="st50" d="M514,357.9c0,0-39.9-6.9-71.2,0.3C442.8,358.1,472.6,349.7,514,357.9z"/>
						
							<linearGradient id="SVGID_61_" gradientUnits="userSpaceOnUse" x1="298.1043" y1="491.0449" x2="298.1043" y2="353.3419" gradientTransform="matrix(-1 0 0 1 595.1602 0)">
							<stop  offset="0" style="stop-color:#619306"/>
							<stop  offset="1" style="stop-color:#ECEA00"/>
						</linearGradient>
						<path class="st51" d="M-8.6,378.6c0.1,0,12.3-3.7,36-7.2c25.3-3.7,54-5.6,85.2-5.8c1.6,0,3.2,0,4.9,0
							c14.2,0,28.8,0.4,43.8,1.1c75.8-37.3,151.2,15.2,153.9,17c32.2,3.9,63.6,6.3,93.7,7.3c10.3,0.3,20.5,0.5,30.5,0.5
							c48.6,0,84.1-4.1,105.3-7.5c16.9-2.7,26-5.2,26.9-5.5c1-0.2,23.6-4.9,31.2-4.9V491H-8.6L-8.6,378.6z"/>
						
							<linearGradient id="SVGID_62_" gradientUnits="userSpaceOnUse" x1="320.6482" y1="469.3184" x2="320.6482" y2="404.2266" gradientTransform="matrix(-1 0 0 1 595.1602 0)">
							<stop  offset="0.4222" style="stop-color:#558618"/>
							<stop  offset="1" style="stop-color:#E6D813"/>
						</linearGradient>
						<path class="st52" d="M295.7,469.3c0,0-80.8-9.1-82.2-23c0,0-3.4-7.5,57.5-20.7c60.9-13.2,62.6-18.4,62.6-18.4l4.5-3
							c0,0-29.1,12.4-75.6,21.8c-46.5,9.4-52,17.7-51.3,21.4C211,447.5,207.1,461.4,295.7,469.3z"/>
						<path class="st53" d="M322.3,384.6c0,0,87.3,9.9-57.5,40.7c-137.2,29.2,31.6,44,31.6,44s265.8,25.8,117.8,118.7H-8.5
							c0,0,346.9-57.9,183.4-95.9c-163.5-38,33.2-64.5,33.2-64.5s184-27.4,107.3-43.8L322.3,384.6z"/>
						<path class="st54" d="M161.3,366.7c0,0-58-2.4-102,1.1C59.3,367.8,110.9,361.5,161.3,366.7z"/>
						
							<linearGradient id="SVGID_63_" gradientUnits="userSpaceOnUse" x1="535.8152" y1="443.543" x2="535.8152" y2="337.6406" gradientTransform="matrix(-1 0 0 1 595.1602 0)">
							<stop  offset="0" style="stop-color:#87AF00"/>
							<stop  offset="1" style="stop-color:#ECEA00"/>
						</linearGradient>
						<path class="st55" d="M127.1,437.2c0,0-15.1-86.8-135.5-99.6v105.9L127.1,437.2z"/>
						
							<linearGradient id="SVGID_64_" gradientUnits="userSpaceOnUse" x1="491.6144" y1="588.0781" x2="491.6144" y2="407.1084" gradientTransform="matrix(-1 0 0 1 595.1602 0)">
							<stop  offset="0" style="stop-color:#8EAF00"/>
							<stop  offset="1" style="stop-color:#ECEA00"/>
						</linearGradient>
						<path class="st56" d="M102.1,588.1c0,0,215.6-15.7,70.4-123.9C27.4,356.1-15.7,434.8-15.7,434.8v153.3H102.1z"/>
						<path class="st57" d="M208.9,497.6c0,0,29.2,42-10.1,60.1C163.4,574,68,588.1,68,588.1h43.4c0,0,75.3-7.2,102.8-35
							C238.4,528.5,208.9,497.6,208.9,497.6z"/>
						<path class="st54" d="M303.1,378.7c0,0,49.9-30.1,108.2-12C411.2,366.6,362.6,344.6,303.1,378.7z"/>
						
							<linearGradient id="SVGID_65_" gradientUnits="userSpaceOnUse" x1="73.3267" y1="443.543" x2="73.3267" y2="325.6045" gradientTransform="matrix(-1 0 0 1 595.1602 0)">
							<stop  offset="0" style="stop-color:#619306"/>
							<stop  offset="1" style="stop-color:#E6D813"/>
						</linearGradient>
						<path class="st58" d="M602.7,443.5c0,0-104.2-12.9-161.8-49.7c0,0,46-46.2,161.8-68.3V443.5z"/>
						<path class="st54" d="M471.3,372.1c0,0,50.5-32.5,131.4-46.5v1.9C602.7,327.5,538.8,336.9,471.3,372.1z"/>
						
							<linearGradient id="SVGID_66_" gradientUnits="userSpaceOnUse" x1="150.815" y1="424.4989" x2="150.815" y2="355.3431" gradientTransform="matrix(-1 0 0 1 595.1602 0)">
							<stop  offset="0" style="stop-color:#A1BE00"/>
							<stop  offset="1" style="stop-color:#E6D813"/>
						</linearGradient>
						<path class="st59" d="M331.1,409.4c0,0,88.5-95.6,181.8-32.5c93.2,63.1,11.7,45.3,11.7,45.3L331.1,409.4z"/>
						
							<linearGradient id="SVGID_67_" gradientUnits="userSpaceOnUse" x1="161.2911" y1="588.0781" x2="161.2911" y2="375.53" gradientTransform="matrix(-1 0 0 1 595.1602 0)">
							<stop  offset="0.25" style="stop-color:#8EAF00"/>
							<stop  offset="1" style="stop-color:#ECEA00"/>
						</linearGradient>
						<path class="st60" d="M602.9,376.1c0,0-114.9-9.5-208.7,48.4c0,0-19.2,15.4-60.6,16.8c-41.4,1.4-68.9,24.3-68.9,24.3
							s109.2,12.3,135.5,25c0,0,102.8,28.6,17.9,97.5h184.5L602.9,376.1z"/>
						<path class="st57" d="M414.1,588.1c0,0,86.5-60.4-13.8-97.5c0,0-42.5-12.7-104-21.2c0,0,82.7,6.1,121.8,25.3
							c39,19.2,60.1,48.6,3.1,93.4H414.1z"/>
						<path class="st54" d="M208.9,497.6c0,0-55.2-68.3-145.4-88.4c0,0-48.5-15.4-79.2,25.5c0,0,27.2-41.1,88.1-21.1
							C133.4,433.6,158.5,451.1,208.9,497.6z"/>
						<g>
							<path class="st54" d="M502.5,370.5c0,0-53.6-32.2-129.9,6.5C372.6,377,437.3,331.9,502.5,370.5z"/>
						</g>
						<g>
							<path class="st61" d="M-7.3,337.8c0,0,87.4,4.8,123.6,71.9C116.4,409.7,88.9,352.9-7.3,337.8z"/>
						</g>
						<path class="st54" d="M314.8,383.4c0,0-64.4-43.7-137.1-23.4C177.7,360,237.6,334.2,314.8,383.4z"/>
						<path class="st54" d="M602.9,376.1c0,0-97.1-11.3-191.4,38.6C411.5,414.7,480.5,375.4,602.9,376.1z"/>
						<path class="st54" d="M297.1,448.3c0,0,45.8-15.4,105.4,0.2C402.5,448.5,349.8,430,297.1,448.3z"/>
						<polygon class="st57" points="313.6,472 264.8,465.6 261.4,464.2 321.5,472 						"/>
						<path class="st54" d="M8.9,413.8c0,0-9.2,3.7-17.3,11.9l-0.1,1c0,0,8.8-9.5,20.8-13.2C12.3,413.5,11.5,412.6,8.9,413.8z"/>
						
							<linearGradient id="SVGID_68_" gradientUnits="userSpaceOnUse" x1="981.6313" y1="610.2442" x2="981.6313" y2="409.0229" gradientTransform="matrix(1 0 0 1 -387.1523 0)">
							<stop  offset="0" style="stop-color:#8EAF00"/>
							<stop  offset="1" style="stop-color:#ECEA00"/>
						</linearGradient>
						<path class="st62" d="M596.1,610.2c0,0-239.7-17.5-78.3-137.7c161.4-120.2,209.3-32.7,209.3-32.7v170.5H596.1z"/>
						<path class="st54" d="M477.3,509.6c0,0,61.3-76,161.7-98.2c0,0,54-17.1,88,28.4c0,0-30.3-45.7-98-23.5
							C561.3,438.4,533.4,457.9,477.3,509.6z"/>
					</g>
				</g>
				<path class="st63" d="M280.1,588.1c0,0,96.1-59.3,8.2-88.6C205.8,472,146.2,462,180.2,444.4h2.6c0,0-20.8,8.1-0.3,17.1
					c14.6,6.4,88.6,28.8,106.3,33.6c17.7,4.9,52.9,17.9,45.9,44.6c-6.9,26.7-36.4,48.3-36.4,48.3H280.1z"/>
				<path class="st63" d="M182.9,444.4c0,0,34-13.1,110.3-29.7c76.3-16.5,43.5-28.5,22.3-30.9c0,0,26.5,4,24.9,11.1
					c-1.5,7.1-17.8,13-49.3,19.8c0,0-82.6,17.5-110.8,29.7H182.9z"/>
				<g>
					<path class="st64" d="M202.2,221.9c0.5-0.6,0.7-7.2-7.1-7.5c-2-0.1-3.8,0.4-5.3,1.1c0,0,0,0,0-0.1c0-1.3-0.9-2.4-2.3-2.7
						c0,0,0,0,0,0c0.1-3.8-2.7-6.9-6.4-7c-1.3,0-2.5,0.3-3.5,0.9c-0.1,0-0.1,0-0.2,0c-0.7-0.7-1.7-1.1-2.9-1.1
						c-1.6,0-3.1,0.7-3.8,1.9c0-0.1,0-0.2,0-0.3c0.1-2.2-1.9-4.1-4.4-4.2c0,0,0,0,0,0c0.2-7-6.2-12.9-14.3-13.2
						c-8.1-0.2-14.9,5.3-15.1,12.3c0,0.3,0,0.5,0,0.8c-1.3-1.2-3.1-1.9-5.1-2c-3.5-0.1-6.5,1.9-7.1,4.7c-1.8-2.8-5.3-2.3-7.2-0.3
						c-0.9-3.4-3.9-5.9-7.4-6c-4.4-0.1-8.1,3.5-8.2,8c0,0.6,0,1.1,0.1,1.7c0,0.7,0.1,1.5-0.1,2c-0.7-0.3-1.4-0.4-2.2-0.4
						c-3.1-0.1-5.6,1.9-5.9,4.4c-3.1-1.3-7.8-0.4-9,2.9c-0.7-0.8-1.8-1.4-3-1.4c-1.6,0-3,0.8-3.7,2c-2.4-4.8-13.2-3.1-13.3,2.6
						c0,0,0,0.4,0.1,0.8H202.2z"/>
					<g>
						<path class="st64" d="M459.9,221c-0.1,0,2.4-9,12.7-3.7c0.5-5.2,3.7-5.4,7.2-4.9c-5.3-2.9,1.6-10.8,4.9-3.6
							c-2.3-8.4,16.3-13.5,16.3-0.1c2.4-2.9,6.4-0.4,6.8,2.2c0.1-5.1,19.6-7.2,19.5,4c1.1-3,5.7-3.6,7.2-0.5c1.6-4.7,5.6-3.2,5.6,1
							c0-10.4,15.6-4.1,7.9,3.6c5.5-4.7,11.7-2.5,14.5,1.9H459.9z"/>
					</g>
					<path class="st65" d="M196.2,218.1c-2.2-0.4-6.2,0.8-6.2,0.8c-2.4-2.6-3.9-2-5.7-1.2c-0.3-5.3-6.6-5.5-9.7-3.2
						c-0.7-3.4-4.7-3.3-6.1-0.3c-0.9-2.3-3.4-2.7-5.8-2.3c0.5-5.6-5.5-8.5-10.4-9.2c-6.3-0.9-17,3.1-13.5,7.1
						c-2.6-1.5-6.9-3.1-10.3-1.7c-2.1,0.9-4.9,4.4-4.4,6.7c-1.7-3.2-7.5-2.9-6.5,0.8c-1-4-0.8-8.2-6.2-8.3c-3,0-11.2,5.5-7.1,8
						c-4-2.5-8.4,0.1-10.5,3.8c-2.7-2-6.8-0.7-9.5,0.6c-1.6-1.6-5.3-1.6-6.7-0.1c-3.3-2.6-8.7-1.9-12.4-0.3c-0.2,0.5-0.4,1-0.4,1.6
						c0,0,0,0.4,0.1,0.8h137C200.6,220,198.5,218.6,196.2,218.1z"/>
					<path class="st65" d="M460.5,221h100.2c-0.1-0.1-0.2-0.2-0.3-0.3c-1.3-1.2-3.2-1.8-5-2.2c-3-0.7-8,0.8-8,0.8s-1.5-2.9-3.3-3.5
						c-2.8-0.8-3.7,1.2-5.3,3.1c-0.2-3.1-3.4-2.5-3.4-0.6c-1.1-4.6-8.6-1.5-11.3,0.6c-3.9-7.8-11.4-5.8-18.2-2.5
						c-1-2.4-4.8-4.4-6.8-1.5c-1.9-4.1-13.9-8.4-13.1-1.2c-0.8-0.8-2.6-2.9-4.7-0.9c-0.9,1.1-0.5,2.1-0.1,3.4
						c-2.6-1.5-7.9,0.8-8.3,3.6C469.7,217.2,464.1,218.4,460.5,221z"/>
					<g>
						<path class="st64" d="M241.2,282.8c0.1,0-1.6-6.2-8.9-2.6c-0.3-3.6-2.6-3.7-5-3.4c3.7-2-1.1-7.5-3.4-2.5
							c1.6-5.9-11.3-9.4-11.3-0.1c-1.7-2-4.5-0.3-4.7,1.5c-0.1-3.6-13.6-5-13.5,2.8c-0.8-2.1-4-2.5-5-0.4c-1.1-3.3-3.9-2.2-3.9,0.7
							c0-7.3-10.9-2.8-5.5,2.5c-3.8-3.3-8.2-1.7-10.1,1.3H241.2z"/>
					</g>
					<path class="st65" d="M240.8,282.8h-69.7c0.1-0.1,0.2-0.1,0.2-0.2c0.9-0.9,2.3-1.3,3.5-1.6c2.1-0.5,5.5,0.5,5.5,0.5
						s1.1-2.1,2.3-2.4c1.9-0.6,2.6,0.9,3.7,2.2c0.2-2.2,2.4-1.7,2.3-0.4c0.8-3.2,6-1,7.8,0.4c2.7-5.5,7.9-4,12.6-1.7
						c0.7-1.7,3.4-3,4.7-1c1.3-2.8,9.7-5.8,9.1-0.8c0.6-0.6,1.8-2,3.3-0.7c0.6,0.8,0.3,1.5,0,2.3c1.8-1,5.5,0.6,5.8,2.5
						C234.4,280.1,238.4,281,240.8,282.8z"/>
					<path class="st64" d="M438.2,269.4c-3-4.9-6.3-2.8-6.3-2.8c-1.3-5.7-5.8-1.4-5.8-1.4c0-2.3-1.8-3.2-1.8-3.2
						c-5.5-3.7-8,2.3-8,2.3c-1.6-4.3-5.2-1.4-5.2-1.4s2-6-5.9-9.5c-7.9-3.4-10.6,4-10.6,4c-0.8-2.7-2.5-2.3-3.4-1.9
						c0-0.2,0-0.5,0-0.7c0-3.5-2.9-6.3-6.5-6.3c-1.4,0-2.7,0.4-3.7,1.1c-0.8-1.6-1.6-2.5-2.5-3c0,0,0-0.1,0-0.1
						c0-6.2-5-11.2-11.2-11.2c-5.4,0-9.9,3.8-11,8.9c-4.9-1.6-6.9,3.9-6.9,3.9c-0.1-0.1-0.3-0.2-0.4-0.3c-1.9-2.7-5.1-4.4-8.6-4.4
						c-5.9,0-10.6,4.8-10.6,10.6c0,2,0.6,3.9,1.5,5.5c-7.4-1-6.4,7-6.4,7c-4.9-2-4.6,2.8-4.6,2.8c-15.1-2.9-15.5,2.9-15.5,2.9H455
						C452,264.7,438.2,269.4,438.2,269.4z"/>
					<path class="st65" d="M424.5,271.7c2-7.1-5.8-3-8.2-2.4c0,0-2.8-1.5-4.7-2c-2.3-0.6-3.2,0-6.1,1.4c1.7-8.6-12.8-9-14-2.5
						c-1.2-2.3-3.6-1.3-5.5-0.3c-0.1-4.8-7.6-7.6-8.1-3.5c-3.3-2.8-2.7-6.8-7-8.6c-3.7-1.6-16.1-1.7-14.8,4.1
						c-1.8-1.6-4.7-1.3-6.1,1c-4.6-3.5-18.1,0.9-13.1,6.7c-4.7-4.4-7.5,0.4-8.6,4.5c-2.7-1-6.5-1.2-7.8,1.7
						c-5.8-2.2-10.4-0.9-15.5,0.6h149.7c-2.4-0.8-4.9-1.6-7.1-1.8c-5.5-0.6-10.9,0-10.9,0c-3.6-1.5-6,0.6-6,0.6
						C428.2,268.5,424.5,271.7,424.5,271.7z"/>
				</g>
			</g>
			<g>
				<g>
					<defs>
						<rect id="SVGID_69_" x="-8.5" y="215.1" width="611.5" height="372.9"/>
					</defs>
					<clipPath id="SVGID_70_">
						<use xlink:href="#SVGID_69_"  style="overflow:visible;"/>
					</clipPath>
				</g>
			</g>
		</g>
	</g>
	<g>
		<defs>
			<rect id="SVGID_71_" y="0" width="595.2" height="508.4"/>
		</defs>
		<clipPath id="SVGID_72_">
			<use xlink:href="#SVGID_71_"  style="overflow:visible;"/>
		</clipPath>
		<g class="st66">
			<g>
				<g>
					<defs>
						<rect id="SVGID_73_" x="-8.5" y="215.1" width="611.5" height="372.9"/>
					</defs>
					<clipPath id="SVGID_74_">
						<use xlink:href="#SVGID_73_"  style="overflow:visible;"/>
					</clipPath>
				</g>
			</g>
			<g>
				<g>
					<defs>
						<rect id="SVGID_75_" x="-8.5" y="215.1" width="611.5" height="372.9"/>
					</defs>
					<clipPath id="SVGID_76_">
						<use xlink:href="#SVGID_75_"  style="overflow:visible;"/>
					</clipPath>
				</g>
			</g>
			<g>
				<g>
					<defs>
						<rect id="SVGID_77_" x="-8.5" y="215.1" width="611.5" height="372.9"/>
					</defs>
					<clipPath id="SVGID_78_">
						<use xlink:href="#SVGID_77_"  style="overflow:visible;"/>
					</clipPath>
				</g>
			</g>
		</g>
	</g>
</g>
</svg>
